<?xml version="1.0" encoding="UTF-8"?>
<svg version="1.1" xmlns="http://www.w3.org/2000/svg" width="200" height="200">
<path d="M0 0 C66 0 132 0 200 0 C200 66 200 132 200 200 C134 200 68 200 0 200 C0 134 0 68 0 0 Z " fill="#FCFDFD" transform="translate(0,0)"/>
<path d="M0 0 C2.44969175 2.08944297 3.21626425 3.75584338 4.125 6.8125 C-0.53425926 6.18287037 -0.53425926 6.18287037 -2.3125 4.25 C-3.88927411 2.52949578 -3.88927411 2.52949578 -6.8125 2.375 C-9.88157577 2.61885041 -9.88157577 2.61885041 -12.25 4.1875 C-14.72442193 8.18464312 -14.50717317 12.22556906 -13.875 16.8125 C-12.63747658 19.99621689 -12.63747658 19.99621689 -9.875 21.8125 C-8.50157169 21.8814472 -7.12497898 21.89717708 -5.75 21.875 C-3.831875 21.8440625 -3.831875 21.8440625 -1.875 21.8125 C-1.875 19.8325 -1.875 17.8525 -1.875 15.8125 C0.435 15.8125 2.745 15.8125 5.125 15.8125 C5.16625 14.905 5.2075 13.9975 5.25 13.0625 C6.125 9.8125 6.125 9.8125 8.75 7.4375 C13.58138092 5.11127956 17.20759183 5.40689442 22.375 6.5 C23.2825 6.603125 24.19 6.70625 25.125 6.8125 C25.56199219 6.32007812 25.99898438 5.82765625 26.44921875 5.3203125 C28.125 3.8125 28.125 3.8125 30.75390625 3.66796875 C31.72199219 3.77753906 32.69007812 3.88710937 33.6875 4 C34.65816406 4.09667969 35.62882812 4.19335938 36.62890625 4.29296875 C39.125 4.8125 39.125 4.8125 41.125 6.8125 C43.40803235 6.71841269 43.40803235 6.71841269 45.9375 6.25 C49.47551502 5.81030449 50.83445967 5.68798271 54.1875 7.125 C56.125 8.8125 56.125 8.8125 57.125 10.8125 C57.125 12.7925 57.125 14.7725 57.125 16.8125 C52.505 16.8125 47.885 16.8125 43.125 16.8125 C44.115 18.4625 45.105 20.1125 46.125 21.8125 C48.66827108 22.47935938 48.66827108 22.47935938 51.125 21.8125 C52.115 20.3275 52.115 20.3275 53.125 18.8125 C54.445 18.8125 55.765 18.8125 57.125 18.8125 C56.49546393 21.75033498 55.89909519 24.36255903 54.125 26.8125 C51 27.5625 51 27.5625 48.125 27.8125 C48.125 29.4625 48.125 31.1125 48.125 32.8125 C49.259375 33.204375 50.39375 33.59625 51.5625 34 C55.125 35.8125 55.125 35.8125 56.0625 38.5 C56.083125 39.263125 56.10375 40.02625 56.125 40.8125 C55.135 40.8125 54.145 40.8125 53.125 40.8125 C53.125 40.1525 53.125 39.4925 53.125 38.8125 C51.475 39.1425 49.825 39.4725 48.125 39.8125 C50.75147188 41.56348126 53.41275382 43.19981308 56.125 44.8125 C55.51222388 47.77425123 54.87127478 49.19308783 53.125 51.8125 C50.42322437 52.68875156 48.60835552 52.91326734 45.8203125 52.33203125 C42.91705431 51.77241771 40.26589457 51.71441693 37.3125 51.75 C35.600625 51.770625 33.88875 51.79125 32.125 51.8125 C32.125 48.1825 32.125 44.5525 32.125 40.8125 C31.465 40.8125 30.805 40.8125 30.125 40.8125 C30.125 44.1125 30.125 47.4125 30.125 50.8125 C29.40054688 50.80089844 28.67609375 50.78929687 27.9296875 50.77734375 C20.44076427 50.55423791 20.44076427 50.55423791 13.125 51.8125 C11.43961399 53.80915314 11.43961399 53.80915314 10.125 55.8125 C9.135 55.8125 8.145 55.8125 7.125 55.8125 C7.125 54.8225 7.125 53.8325 7.125 52.8125 C7.785 52.8125 8.445 52.8125 9.125 52.8125 C8.78055119 50.33983235 8.78055119 50.33983235 8.125 47.8125 C7.135 47.3175 7.135 47.3175 6.125 46.8125 C6.125 48.1325 6.125 49.4525 6.125 50.8125 C-1.795 51.1425 -9.715 51.4725 -17.875 51.8125 C-18.205 47.8525 -18.535 43.8925 -18.875 39.8125 C-20.195 39.4825 -21.515 39.1525 -22.875 38.8125 C-22.875 42.7725 -22.875 46.7325 -22.875 50.8125 C-25.47944348 50.86644705 -28.08276998 50.90614469 -30.6875 50.9375 C-31.42548828 50.95425781 -32.16347656 50.97101563 -32.92382812 50.98828125 C-36.78746426 51.02324628 -38.58403668 51.00647555 -41.875 48.8125 C-41.625 46.4375 -41.625 46.4375 -40.875 43.8125 C-37.97689884 41.71387502 -36.59121139 41.8125 -32.875 41.8125 C-32.875 40.8225 -32.875 39.8325 -32.875 38.8125 C-35.515 39.4725 -38.155 40.1325 -40.875 40.8125 C-40.545 39.1625 -40.215 37.5125 -39.875 35.8125 C-38.3542733 35.78496169 -36.83339326 35.76586625 -35.3125 35.75 C-34.46558594 35.73839844 -33.61867188 35.72679687 -32.74609375 35.71484375 C-29.875 35.8125 -29.875 35.8125 -26.5 36.375 C-22.56221055 36.85025045 -19.34425266 36.50752186 -15.4375 35.875 C-14.20128906 35.68035156 -12.96507812 35.48570313 -11.69140625 35.28515625 C-10.76199219 35.12917969 -9.83257812 34.97320312 -8.875 34.8125 C-8.730625 34.008125 -8.58625 33.20375 -8.4375 32.375 C-7.875 29.8125 -7.875 29.8125 -6.875 28.8125 C-8.525 28.1525 -10.175 27.4925 -11.875 26.8125 C-11.875 26.1525 -11.875 25.4925 -11.875 24.8125 C-12.7721875 24.503125 -12.7721875 24.503125 -13.6875 24.1875 C-16.89068719 22.17406805 -17.60296751 20.37419096 -18.875 16.8125 C-19.56306393 11.70590504 -19.4499414 7.96238281 -17.125 3.3125 C-12.36983465 -1.97101705 -6.53006986 -2.69720277 0 0 Z " fill="#F3FCF8" transform="translate(87.875,73.1875)"/>
<path d="M0 0 C3.66172475 0.62678171 6.8818995 1.64451846 10.3125 3.0625 C11.19550781 3.42472656 12.07851562 3.78695312 12.98828125 4.16015625 C13.65214844 4.43730469 14.31601563 4.71445312 15 5 C14.92555664 5.77375977 14.85111328 6.54751953 14.77441406 7.34472656 C13.23685437 24.97347074 13.23685437 24.97347074 20.51953125 40.37890625 C25.30598333 45.35895986 30.49186648 49.83657514 36 54 C31.94581708 58.8541568 27.71899422 63.463369 23.25 67.9375 C22.67378906 68.52595703 22.09757812 69.11441406 21.50390625 69.72070312 C20.04211829 71.18760223 18.52517091 72.59911788 17 74 C16.34 74 15.68 74 15 74 C15 83.9 15 93.8 15 104 C2 109 2 109 0 109 C-0.24929646 104.4654891 -0.4295585 99.93504657 -0.54931641 95.39526367 C-0.59927231 93.85549395 -0.66727252 92.31619065 -0.75439453 90.77807617 C-1.45737334 78.03761902 -1.45737334 78.03761902 2.05297852 73.12963867 C4.59036177 70.85249986 7.18512046 68.9184902 10 67 C11.16309643 65.97826686 12.30683314 64.9334806 13.41796875 63.85546875 C15.28570187 62.05622796 17.16089614 60.26470448 19.04296875 58.48046875 C21.22601861 56.27337875 21.22601861 56.27337875 20.90185547 54.07250977 C19.67434616 51.2516309 17.9975632 50.17875676 15.52734375 48.359375 C-0.05260287 35.80065595 -0.05260287 35.80065595 -1.18748474 25.76702881 C-1.72093248 17.16638203 -1.03448554 8.54007603 0 0 Z " fill="#06A351" transform="translate(164,45)"/>
<path d="M0 0 C2.1875 1.625 2.1875 1.625 3.1875 3.625 C3.1875 5.605 3.1875 7.585 3.1875 9.625 C-1.4325 9.625 -6.0525 9.625 -10.8125 9.625 C-9.8225 11.275 -8.8325 12.925 -7.8125 14.625 C-5.26922892 15.29185938 -5.26922892 15.29185938 -2.8125 14.625 C-2.1525 13.635 -1.4925 12.645 -0.8125 11.625 C0.5075 11.625 1.8275 11.625 3.1875 11.625 C2.55796393 14.56283498 1.96159519 17.17505903 0.1875 19.625 C-2.9375 20.375 -2.9375 20.375 -5.8125 20.625 C-5.8125 22.275 -5.8125 23.925 -5.8125 25.625 C-4.678125 26.016875 -3.54375 26.40875 -2.375 26.8125 C1.1875 28.625 1.1875 28.625 2.125 31.3125 C2.145625 32.075625 2.16625 32.83875 2.1875 33.625 C1.1975 33.625 0.2075 33.625 -0.8125 33.625 C-0.8125 32.965 -0.8125 32.305 -0.8125 31.625 C-3.2875 32.12 -3.2875 32.12 -5.8125 32.625 C-3.18602812 34.37598126 -0.52474618 36.01231308 2.1875 37.625 C1.57472388 40.58675123 0.93377478 42.00558783 -0.8125 44.625 C-3.51427563 45.50125156 -5.32914448 45.72576734 -8.1171875 45.14453125 C-11.02044569 44.58491771 -13.67160543 44.52691693 -16.625 44.5625 C-18.336875 44.583125 -20.04875 44.60375 -21.8125 44.625 C-21.8125 40.995 -21.8125 37.365 -21.8125 33.625 C-22.4725 33.625 -23.1325 33.625 -23.8125 33.625 C-23.8125 36.925 -23.8125 40.225 -23.8125 43.625 C-26.4525 43.625 -29.0925 43.625 -31.8125 43.625 C-30.3275 43.13 -30.3275 43.13 -28.8125 42.625 C-28.8125 41.965 -28.8125 41.305 -28.8125 40.625 C-29.4725 40.625 -30.1325 40.625 -30.8125 40.625 C-30.8125 37.655 -30.8125 34.685 -30.8125 31.625 C-30.1525 31.625 -29.4925 31.625 -28.8125 31.625 C-28.8125 30.965 -28.8125 30.305 -28.8125 29.625 C-29.4725 29.625 -30.1325 29.625 -30.8125 29.625 C-31.1425 26.325 -31.4725 23.025 -31.8125 19.625 C-27.45717851 17.44733925 -26.34624042 17.59460445 -21.8125 18.625 C-21.82410156 17.55378906 -21.83570312 16.48257813 -21.84765625 15.37890625 C-21.85703299 13.98177257 -21.86613331 12.58463701 -21.875 11.1875 C-21.88756836 10.12692383 -21.88756836 10.12692383 -21.90039062 9.04492188 C-21.90903588 7.23806441 -21.86470011 5.43112397 -21.8125 3.625 C-20.8125 2.625 -20.8125 2.625 -18.25 2.5625 C-17.0434375 2.5934375 -17.0434375 2.5934375 -15.8125 2.625 C-15.4825 1.635 -15.1525 0.645 -14.8125 -0.375 C-4.70502336 -2.30023364 -4.70502336 -2.30023364 0 0 Z " fill="#F4FCF8" transform="translate(141.8125,80.375)"/>
<path d="M0 0 C0.66 0 1.32 0 2 0 C2 1.98 2 3.96 2 6 C3.18078125 5.97679688 4.3615625 5.95359375 5.578125 5.9296875 C7.13541033 5.91092503 8.69270252 5.89272534 10.25 5.875 C11.02730469 5.85824219 11.80460937 5.84148437 12.60546875 5.82421875 C19.96292928 5.76133447 19.96292928 5.76133447 23 8 C24.585869 11.171738 24.37866445 14.63513822 24.5625 18.125 C24.60568359 18.87910156 24.64886719 19.63320312 24.69335938 20.41015625 C24.7994832 22.27321888 24.90025001 24.13658524 25 26 C8.9953141 29.73231806 8.9953141 29.73231806 1 28 C0.01 27.34 -0.98 26.68 -2 26 C-2.22107787 23.2114711 -2.28107535 20.65346819 -2.1875 17.875 C-2.17396484 17.12089844 -2.16042969 16.36679688 -2.14648438 15.58984375 C-2.11109985 13.72625873 -2.05729167 11.86304022 -2 10 C-2.66 10 -3.32 10 -4 10 C-4 8.68 -4 7.36 -4 6 C-3.34 6 -2.68 6 -2 6 C-1.855625 5.195625 -1.71125 4.39125 -1.5625 3.5625 C-1 1 -1 1 0 0 Z " fill="#C2EDD4" transform="translate(29,73)"/>
<path d="M0 0 C5.77494139 -0.34649648 9.99303982 -0.29726646 15 3 C17 6 17 6 17 9 C15.68 9 14.36 9 13 9 C12.319375 8.01 12.319375 8.01 11.625 7 C11.08875 6.34 10.5525 5.68 10 5 C6.87413125 4.66602213 6.87413125 4.66602213 4 5 C3.34 6.32 2.68 7.64 2 9 C3.5159375 9.6496875 3.5159375 9.6496875 5.0625 10.3125 C5.69671875 10.58707031 6.3309375 10.86164063 6.984375 11.14453125 C8.29937004 11.70263961 9.62222887 12.24266926 10.953125 12.76171875 C14.44900139 14.14978732 15.85509392 14.78264089 18 18 C18.53916146 20.6602023 18.73370098 23.29262663 19 26 C13.62983984 29.07070328 9.22444277 30.79591991 3 31 C1.3207762 30.36562656 -0.35008418 29.70710678 -2 29 C-2.99 29.66 -3.98 30.32 -5 31 C-5.0580772 26.91672643 -5.09362249 22.83355917 -5.125 18.75 C-5.14175781 17.59113281 -5.15851562 16.43226562 -5.17578125 15.23828125 C-5.18222656 14.12324219 -5.18867187 13.00820312 -5.1953125 11.859375 C-5.20578613 10.83295898 -5.21625977 9.80654297 -5.22705078 8.74902344 C-4.99836111 5.98015712 -4.4243299 4.35581208 -3 2 C-2.01 2 -1.02 2 0 2 C0 1.34 0 0.68 0 0 Z " fill="#EAFAF2" transform="translate(5,71)"/>
<path d="M0 0 C1.32 0 2.64 0 4 0 C4 0.66 4 1.32 4 2 C4.66 2.33 5.32 2.66 6 3 C6.33 3.33 6.66 3.66 7 4 C9.32961443 4.35840222 11.66365343 4.68848712 14 5 C14.94875 5.20625 15.8975 5.4125 16.875 5.625 C17.57625 5.74875 18.2775 5.8725 19 6 C19.33 5.67 19.66 5.34 20 5 C21.99958364 4.95919217 24.00045254 4.95745644 26 5 C26.66 6.32 27.32 7.64 28 9 C27.34 9 26.68 9 26 9 C26 8.34 26 7.68 26 7 C24.35 7.33 22.7 7.66 21 8 C23.62647188 9.75098126 26.28775382 11.38731308 29 13 C28.38722388 15.96175123 27.74627478 17.38058783 26 20 C23.29822437 20.87625156 21.48335552 21.10076734 18.6953125 20.51953125 C15.79205431 19.95991771 13.14089457 19.90191693 10.1875 19.9375 C8.475625 19.958125 6.76375 19.97875 5 20 C5 16.37 5 12.74 5 9 C4.34 9 3.68 9 3 9 C3 11.97 3 14.94 3 18 C2.01 18 1.02 18 0 18 C0 13.71 0 9.42 0 5 C0.99 5 1.98 5 3 5 C3 4.34 3 3.68 3 3 C2.01 3 1.02 3 0 3 C0 2.01 0 1.02 0 0 Z " fill="#D5F7E5" transform="translate(115,105)"/>
<path d="M0 0 C2.75329021 1.79562405 4.52627461 3.05254922 6 6 C6.37712577 10.99691647 6.09290612 13.99067725 3 18 C-0.75047482 20.50031654 -2.55856266 20.53603554 -7 20 C-9.9375 18.125 -9.9375 18.125 -12 15 C-13.02870363 9.89829907 -12.82533781 6.25051183 -9.9375 1.875 C-6.23197622 -0.49022795 -4.32438094 -0.69498979 0 0 Z " fill="#219E5E" transform="translate(107,79)"/>
<path d="M0 0 C5.79468787 -0.10493399 11.25934644 0.09950532 17 1 C17.928125 0.979375 18.85625 0.95875 19.8125 0.9375 C22 1 22 1 24 3 C24.1953125 5.6015625 24.1953125 5.6015625 24.125 8.625 C24.10695313 9.62789062 24.08890625 10.63078125 24.0703125 11.6640625 C24.04710938 12.43492188 24.02390625 13.20578125 24 14 C23.34 14 22.68 14 22 14 C21.505 9.05 21.505 9.05 21 4 C19.68 3.67 18.36 3.34 17 3 C17 6.96 17 10.92 17 15 C14.39555652 15.05394705 11.79223002 15.09364469 9.1875 15.125 C8.44951172 15.14175781 7.71152344 15.15851563 6.95117188 15.17578125 C3.08753574 15.21074628 1.29096332 15.19397555 -2 13 C-1.75 10.625 -1.75 10.625 -1 8 C1.89810116 5.90137502 3.28378861 6 7 6 C7 5.01 7 4.02 7 3 C4.36 3.66 1.72 4.32 -1 5 C-0.67 3.35 -0.34 1.7 0 0 Z " fill="#CFF5E2" transform="translate(48,109)"/>
<path d="M0 0 C2.08987661 0.69662554 4.17785872 1.39928404 6.2578125 2.125 C8.97451969 3.04542497 8.97451969 3.04542497 11.7421875 3.5625 C22.21665917 6.06047698 29.29022042 13.93031653 36 22 C36 22.33 36 22.66 36 23 C29.72966269 23.91155448 24.28740476 24.45470612 18.78222656 20.95361328 C15.64401444 18.22553957 12.88724751 15.16254558 10.125 12.0625 C9.13222173 11.00793661 8.13614238 9.95647076 7.13671875 8.90820312 C0 1.34787571 0 1.34787571 0 0 Z " fill="#13A45B" transform="translate(109,22)"/>
<path d="M0 0 C1.77503906 0.03480469 1.77503906 0.03480469 3.5859375 0.0703125 C5.36871094 0.09738281 5.36871094 0.09738281 7.1875 0.125 C8.10273438 0.14820313 9.01796875 0.17140625 9.9609375 0.1953125 C8.21765469 4.01318074 6.25002526 5.56404229 2.9609375 8.1953125 C2.53683594 8.79601562 2.11273438 9.39671875 1.67578125 10.015625 C-3.78991095 17.68216926 -12.21890978 20.00857339 -21.0390625 22.1953125 C-22.0290625 21.8653125 -23.0190625 21.5353125 -24.0390625 21.1953125 C-21.58882492 18.68726532 -19.12758652 16.1903049 -16.6640625 13.6953125 C-15.61605469 12.62216797 -15.61605469 12.62216797 -14.546875 11.52734375 C-13.8765625 10.85058594 -13.20625 10.17382812 -12.515625 9.4765625 C-11.89768066 8.84814453 -11.27973633 8.21972656 -10.64306641 7.57226562 C-9.0390625 6.1953125 -9.0390625 6.1953125 -7.0390625 6.1953125 C-6.6059375 5.2671875 -6.6059375 5.2671875 -6.1640625 4.3203125 C-4.44126247 1.06613466 -3.75845267 0.2415458 0 0 Z " fill="#0AA354" transform="translate(134.0390625,153.8046875)"/>
<path d="M0 0 C3 1.1875 3 1.1875 5 3 C5.8125 5.6875 5.8125 5.6875 6 8 C4.68 8 3.36 8 2 8 C1.54625 7.34 1.0925 6.68 0.625 6 C0.08875 5.34 -0.4475 4.68 -1 4 C-4.12586875 3.66602213 -4.12586875 3.66602213 -7 4 C-7.66 5.32 -8.32 6.64 -9 8 C-7.4840625 8.6496875 -7.4840625 8.6496875 -5.9375 9.3125 C-5.30328125 9.58707031 -4.6690625 9.86164063 -4.015625 10.14453125 C-2.70062996 10.70263961 -1.37777113 11.24266926 -0.046875 11.76171875 C3.44900139 13.14978732 4.85509392 13.78264089 7 17 C7.5 19.375 7.5 19.375 7 22 C4.30580863 25.19048978 2.64891114 26.67126971 -1.44921875 27.48828125 C-6.04670253 27.72880731 -8.318111 27.49096008 -12.125 24.75 C-14 22 -14 22 -14 18 C-13.01 18 -12.02 18 -11 18 C-10.236875 18.825 -9.47375 19.65 -8.6875 20.5 C-6.21344871 23.28204283 -6.21344871 23.28204283 -2.8125 23.4375 C0.13036002 23.26298437 0.13036002 23.26298437 2 21 C2.14292386 18.93169979 2.14292386 18.93169979 1 17 C-1.70457309 15.70292473 -1.70457309 15.70292473 -4.9375 14.875 C-10.82244556 13.17755444 -10.82244556 13.17755444 -13 11 C-13.42037462 7.21662839 -13.51868776 4.87951402 -11.5625 1.5625 C-7.74873374 -0.76296723 -4.35308019 -0.6362791 0 0 Z " fill="#229E61" transform="translate(16,72)"/>
<path d="M0 0 C2.76142665 1.01736771 3.68085371 1.36170741 5 4 C5.2322646 6.71262116 5.41936235 9.40773126 5.5625 12.125 C5.60568359 12.87910156 5.64886719 13.63320312 5.69335938 14.41015625 C5.7994832 16.27321888 5.90025001 18.13658524 6 20 C4.68 20 3.36 20 2 20 C2 19.34 2 18.68 2 18 C1.484375 18.33 0.96875 18.66 0.4375 19 C-2.87219404 20.3578232 -5.45640517 20.32214498 -9 20 C-10.9375 18.8125 -10.9375 18.8125 -12 17 C-12.375 14.5 -12.375 14.5 -12 12 C-10.29868896 9.7112656 -9.34097902 9.0703437 -6.51953125 8.48828125 C-5.62621094 8.43027344 -4.73289062 8.37226562 -3.8125 8.3125 C-2.91144531 8.24675781 -2.01039062 8.18101563 -1.08203125 8.11328125 C-0.05142578 8.05720703 -0.05142578 8.05720703 1 8 C0.34 6.68 -0.32 5.36 -1 4 C-3.41645782 3.83312552 -3.41645782 3.83312552 -6 4 C-6.66 4.66 -7.32 5.32 -8 6 C-8.99 6 -9.98 6 -11 6 C-10.6875 4.125 -10.6875 4.125 -10 2 C-6.29873141 -0.46751239 -4.37776468 -0.30721156 0 0 Z " fill="#2DA668" transform="translate(48,79)"/>
<path d="M0 0 C4.63235294 2.26470588 4.63235294 2.26470588 6 5 C6 6.98 6 8.96 6 11 C1.38 11 -3.24 11 -8 11 C-7.01 12.65 -6.02 14.3 -5 16 C-2.45672892 16.66685938 -2.45672892 16.66685938 0 16 C0.66 15.01 1.32 14.02 2 13 C3.32 13 4.64 13 6 13 C5.64393309 15.58148508 5.16671807 16.82045747 3.375 18.75 C0.02036422 20.51559778 -2.25822943 20.45951568 -6 20 C-8.875 18.5625 -8.875 18.5625 -11 16 C-11.99270261 12.94061828 -12.29922859 10.2028542 -12 7 C-8.87521874 0.96593964 -6.71921263 -0.52699707 0 0 Z " fill="#239D5E" transform="translate(139,79)"/>
<path d="M0 0 C2.44969175 2.08944297 3.21626425 3.75584338 4.125 6.8125 C-0.53425926 6.18287037 -0.53425926 6.18287037 -2.3125 4.25 C-3.88927411 2.52949578 -3.88927411 2.52949578 -6.8125 2.375 C-9.88157577 2.61885041 -9.88157577 2.61885041 -12.25 4.1875 C-14.72442193 8.18464312 -14.50717317 12.22556906 -13.875 16.8125 C-12.63747658 19.99621689 -12.63747658 19.99621689 -9.875 21.8125 C-8.50157169 21.8814472 -7.12497898 21.89717708 -5.75 21.875 C-4.47125 21.854375 -3.1925 21.83375 -1.875 21.8125 C-1.215 20.1625 -0.555 18.5125 0.125 16.8125 C1.445 16.8125 2.765 16.8125 4.125 16.8125 C3.6297783 20.47714055 3.1041794 22.52082354 0.125 24.8125 C-3.93501575 26.16583858 -7.63003981 26.34964786 -11.875 25.8125 C-14.90477081 24.07199336 -16.3667035 22.63545623 -18.1875 19.6875 C-19.58265662 13.85320869 -19.83888358 8.74026716 -17.125 3.3125 C-12.36983465 -1.97101705 -6.53006986 -2.69720277 0 0 Z " fill="#1F9F5D" transform="translate(87.875,73.1875)"/>
<path d="M0 0 C0.99 0 1.98 0 3 0 C3.66 6.27 4.32 12.54 5 19 C2.23625 19.04125 -0.5275 19.0825 -3.375 19.125 C-4.67896729 19.15231201 -4.67896729 19.15231201 -6.00927734 19.18017578 C-8.00703478 19.19473738 -10.00467217 19.09956726 -12 19 C-14 17 -14 17 -14.125 14.375 C-14.08375 13.59125 -14.0425 12.8075 -14 12 C-11.03 11.34 -8.06 10.68 -5 10 C-5.33 9.34 -5.66 8.68 -6 8 C-8.52733235 7.34444881 -8.52733235 7.34444881 -11 7 C-11 7.66 -11 8.32 -11 9 C-11.99 9 -12.98 9 -14 9 C-13.34 7.68 -12.68 6.36 -12 5 C-11.06027344 5.03480469 -11.06027344 5.03480469 -10.1015625 5.0703125 C-8.87566406 5.09738281 -8.87566406 5.09738281 -7.625 5.125 C-6.40683594 5.15980469 -6.40683594 5.15980469 -5.1640625 5.1953125 C-2.78657757 5.21370051 -2.78657757 5.21370051 -1 3 C-1 7.62 -1 12.24 -1 17 C-0.67 11.39 -0.34 5.78 0 0 Z " fill="#30A169" transform="translate(89,105)"/>
<path d="M0 0 C0.99 0 1.98 0 3 0 C3 1.65 3 3.3 3 5 C3.66 5 4.32 5 5 5 C5 5.66 5 6.32 5 7 C4.34 7 3.68 7 3 7 C3 9.97 3 12.94 3 16 C3.66 16 4.32 16 5 16 C5 16.66 5 17.32 5 18 C3.56342755 18.33730842 2.12569907 18.66969591 0.6875 19 C-0.11300781 19.185625 -0.91351563 19.37125 -1.73828125 19.5625 C-4 20 -4 20 -7 20 C-7.495 20.66 -7.99 21.32 -8.5 22 C-8.995 22.66 -9.49 23.32 -10 24 C-10.99 24 -11.98 24 -13 24 C-13 23.01 -13 22.02 -13 21 C-12.01 20.67 -11.02 20.34 -10 20 C-10.56820748 14.54520815 -11.94637945 10.08940744 -14 5 C-13.01 5 -12.02 5 -11 5 C-10.01 7.64 -9.02 10.28 -8 13 C-7.01 10.03 -6.02 7.06 -5 4 C-3.35 4 -1.7 4 0 4 C0 2.68 0 1.36 0 0 Z " fill="#D5F5E6" transform="translate(108,105)"/>
<path d="M0 0 C0.66 0.66 1.32 1.32 2 2 C1.34 3.65 0.68 5.3 0 7 C-0.66 7 -1.32 7 -2 7 C-2 8.32 -2 9.64 -2 11 C-1.34 11 -0.68 11 0 11 C0 15.62 0 20.24 0 25 C-4 22 -4 22 -4.8125 18.5 C-5.65475424 14.72253663 -5.65475424 14.72253663 -9.1875 13.25 C-10.45439001 12.82149309 -11.72549379 12.40529297 -13 12 C-14.31811458 11.45078559 -15.63097862 10.88875028 -16.9375 10.3125 C-17.948125 9.879375 -18.95875 9.44625 -20 9 C-20 5 -20 5 -18 3 C-12.76013514 2.44256757 -12.76013514 2.44256757 -10.125 4.375 C-9 6 -9 6 -9 8 C-7.68 8 -6.36 8 -5 8 C-4.67 7.01 -4.34 6.02 -4 5 C-3.67 4.67 -3.34 4.34 -3 4 C-1.99357052 2.67151309 -0.99307821 1.33849671 0 0 Z " fill="#E3FAEF" transform="translate(27,72)"/>
<path d="M0 0 C1.32 0 2.64 0 4 0 C4 0.66 4 1.32 4 2 C4.66 2.33 5.32 2.66 6 3 C6.33 3.33 6.66 3.66 7 4 C8.134375 4.103125 9.26875 4.20625 10.4375 4.3125 C14 5 14 5 15.4375 7.0625 C15.7159375 8.0215625 15.7159375 8.0215625 16 9 C13.69 8.67 11.38 8.34 9 8 C9 10.31 9 12.62 9 15 C10.32 15.33 11.64 15.66 13 16 C13.33 15.34 13.66 14.68 14 14 C14.66 14 15.32 14 16 14 C15.67 15.32 15.34 16.64 15 18 C8.6217765 18.36103152 8.6217765 18.36103152 6.0625 16.875 C4.55515137 14.214973 4.80013747 11.99793795 5 9 C4.34 9 3.68 9 3 9 C3 11.97 3 14.94 3 18 C2.01 18 1.02 18 0 18 C0 13.71 0 9.42 0 5 C0.99 5 1.98 5 3 5 C3 4.34 3 3.68 3 3 C2.01 3 1.02 3 0 3 C0 2.01 0 1.02 0 0 Z " fill="#8CC9A9" transform="translate(115,105)"/>
<path d="M0 0 C2.5 0.4375 2.5 0.4375 4.3125 1.4375 C6.21020228 4.63363015 6.05003751 7.820815 5.5 11.4375 C4.3125 13.4375 4.3125 13.4375 2.5 14.4375 C0 14.875 0 14.875 -2.5 14.4375 C-5.00907308 12.18798621 -5.45656309 10.78499528 -5.875 7.4375 C-5.34465219 3.19471754 -4.42800247 0.77490043 0 0 Z " fill="#E4FBF1" transform="translate(103.5,81.5625)"/>
<path d="M0 0 C0.66 0 1.32 0 2 0 C2 2.31 2 4.62 2 7 C2.99 7 3.98 7 5 7 C5 7.66 5 8.32 5 9 C4.01 9 3.02 9 2 9 C2 13.62 2 18.24 2 23 C2.99 23 3.98 23 5 23 C5 23.99 5 24.98 5 26 C2.625 26.125 2.625 26.125 0 26 C-2 24 -2 24 -2.1953125 20.7421875 C-2.17210938 19.46601562 -2.14890625 18.18984375 -2.125 16.875 C-2.10695313 15.59367187 -2.08890625 14.31234375 -2.0703125 12.9921875 C-2.04710938 12.00476563 -2.02390625 11.01734375 -2 10 C-2.66 10 -3.32 10 -4 10 C-4 8.68 -4 7.36 -4 6 C-3.34 6 -2.68 6 -2 6 C-1.855625 5.195625 -1.71125 4.39125 -1.5625 3.5625 C-1 1 -1 1 0 0 Z " fill="#35A76C" transform="translate(29,73)"/>
<path d="M0 0 C1.485 0.99 1.485 0.99 3 2 C3 2.66 3 3.32 3 4 C3.721875 3.938125 4.44375 3.87625 5.1875 3.8125 C9.41439837 4.09429322 11.76766386 5.68589748 14.6484375 8.7578125 C16.13153336 10.47764667 17.5691825 12.23643425 19 14 C14.38 14 9.76 14 5 14 C4.566875 12.7625 4.13375 11.525 3.6875 10.25 C2.50868303 7.08403441 1.24768753 4.56878575 -1 2 C-0.67 1.34 -0.34 0.68 0 0 Z " fill="#02A44E" transform="translate(126,31)"/>
<path d="M0 0 C3.375 -0.125 3.375 -0.125 7 0 C9 2 9 2 9.1953125 4.6015625 C9.13020833 7.40104167 9.06510417 10.20052083 9 13 C5.37 13 1.74 13 -2 13 C-2.33 11.35 -2.66 9.7 -3 8 C0.44069624 5.70620251 1.72290301 5 6 5 C6 4.01 6 3.02 6 2 C3.36 2.66 0.72 3.32 -2 4 C-1.34 2.68 -0.68 1.36 0 0 Z " fill="#339E68" transform="translate(49,110)"/>
<path d="M0 0 C3.32961021 0.55493503 5.30091917 1.49496853 8 3.5 C9.35439668 6.20879335 9.06501451 8.50933268 9 11.5 C8.34 10.18 7.68 8.86 7 7.5 C6.67 8.16 6.34 8.82 6 9.5 C2.37 9.5 -1.26 9.5 -5 9.5 C-5 7.85 -5 6.2 -5 4.5 C-5.33 5.16 -5.66 5.82 -6 6.5 C-6.66 6.17 -7.32 5.84 -8 5.5 C-3.87378641 0.64563107 -3.87378641 0.64563107 0 0 Z " fill="#25A162" transform="translate(136,78.5)"/>
<path d="M0 0 C3.3 0 6.6 0 10 0 C10.33 0.66 10.66 1.32 11 2 C10.67 2.66 10.34 3.32 10 4 C8.35 4.33 6.7 4.66 5 5 C4.67 9.95 4.34 14.9 4 20 C2.68 20 1.36 20 0 20 C0 13.4 0 6.8 0 0 Z " fill="#35A46B" transform="translate(57,79)"/>
<path d="M0 0 C0.99 0 1.98 0 3 0 C3.66 6.27 4.32 12.54 5 19 C-0.61 19 -6.22 19 -12 19 C-12 18.67 -12 18.34 -12 18 C-5.25 16.875 -5.25 16.875 -3 18 C-3.14084796 16.20793453 -3.28783701 14.41635083 -3.4375 12.625 C-3.51871094 11.62726563 -3.59992188 10.62953125 -3.68359375 9.6015625 C-3.84965626 7.02072387 -3.84965626 7.02072387 -5 5 C-4.34 5 -3.68 5 -3 5 C-2.34 4.34 -1.68 3.68 -1 3 C-1 7.62 -1 12.24 -1 17 C-0.67 11.39 -0.34 5.78 0 0 Z " fill="#8DD0AF" transform="translate(89,105)"/>
<path d="M0 0 C2.97 0 5.94 0 9 0 C9.66 0.66 10.32 1.32 11 2 C10.67 2.66 10.34 3.32 10 4 C8.35 4.33 6.7 4.66 5 5 C4.67 9.95 4.34 14.9 4 20 C2.68 20 1.36 20 0 20 C0 13.4 0 6.8 0 0 Z " fill="#2AA566" transform="translate(116,79)"/>
<path d="M0 0 C4.29 0 8.58 0 13 0 C13 0.33 13 0.66 13 1 C11.88625 1.103125 10.7725 1.20625 9.625 1.3125 C8.42875 1.539375 7.2325 1.76625 6 2 C5.01 3.485 5.01 3.485 4 5 C4.99 5 5.98 5 7 5 C7 4.34 7 3.68 7 3 C8.65 3 10.3 3 12 3 C12.33 3.99 12.66 4.98 13 6 C10.03 6.66 7.06 7.32 4 8 C4.66 10.31 5.32 12.62 6 15 C3.50935112 15.68707555 1.62113708 16 -1 16 C-1 15.34 -1 14.68 -1 14 C-0.34 14 0.32 14 1 14 C0.9278125 13.24074219 0.855625 12.48148438 0.78125 11.69921875 C0.6884375 10.70535156 0.595625 9.71148437 0.5 8.6875 C0.4071875 7.70136719 0.314375 6.71523437 0.21875 5.69921875 C0 3 0 3 0 0 Z " fill="#E2FBED" transform="translate(71,109)"/>
<path d="M0 0 C0.33 0.99 0.66 1.98 1 3 C0.67 3.33 0.34 3.66 0 4 C-0.08767112 6.07262076 -0.10695873 8.14820294 -0.09765625 10.22265625 C-0.09443359 11.48271484 -0.09121094 12.74277344 -0.08789062 14.04101562 C-0.07953403 15.38151109 -0.07106907 16.72200588 -0.0625 18.0625 C-0.0574866 19.40689942 -0.05292342 20.7513006 -0.04882812 22.09570312 C-0.03699488 25.39717941 -0.02050971 28.69856803 0 32 C-1.09957031 32.46921875 -2.19914063 32.9384375 -3.33203125 33.421875 C-5.46202498 34.33829403 -7.58502174 35.27210313 -9.6875 36.25 C-12.31966286 37.10367444 -13.40915798 36.7636166 -16 36 C-14.2097939 35.32942113 -12.41778511 34.6636531 -10.625 34 C-9.62726563 33.62875 -8.62953125 33.2575 -7.6015625 32.875 C-5 32 -5 32 -3 32 C-3.02356567 30.65252686 -3.02356567 30.65252686 -3.04760742 29.27783203 C-3.09869255 25.94932308 -3.13632785 22.62122973 -3.16479492 19.29248047 C-3.17989483 17.85100742 -3.20037658 16.40958041 -3.22631836 14.96826172 C-3.2626513 12.89799657 -3.27971329 10.82833793 -3.29296875 8.7578125 C-3.31653442 6.88826904 -3.31653442 6.88826904 -3.34057617 4.98095703 C-3.22818604 3.99724121 -3.1157959 3.01352539 -3 2 C-2.01 1.34 -1.02 0.68 0 0 Z " fill="#BCEED6" transform="translate(182,117)"/>
<path d="M0 0 C3.96 0.33 7.92 0.66 12 1 C12 1.66 12 2.32 12 3 C8.03611362 3.07622858 4.8726592 2.9681648 1 2 C1 8.6 1 15.2 1 22 C0.67 22 0.34 22 0 22 C-0.33 20.35 -0.66 18.7 -1 17 C-1.99 18.32 -2.98 19.64 -4 21 C-4.66 20.67 -5.32 20.34 -6 20 C-5.505 19.319375 -5.01 18.63875 -4.5 17.9375 C-2.64128923 14.29752475 -2.56656736 12.04537127 -3 8 C-4.36997157 5.12853006 -4.36997157 5.12853006 -6 3 C-4.68 3 -3.36 3 -2 3 C-1.34 2.01 -0.68 1.02 0 0 Z " fill="#E6FCF3" transform="translate(115,77)"/>
<path d="M0 0 C1.4540625 0.0309375 1.4540625 0.0309375 2.9375 0.0625 C3.5975 1.3825 4.2575 2.7025 4.9375 4.0625 C4.2775 4.0625 3.6175 4.0625 2.9375 4.0625 C2.9375 3.4025 2.9375 2.7425 2.9375 2.0625 C1.2875 2.3925 -0.3625 2.7225 -2.0625 3.0625 C0.56397188 4.81348126 3.22525382 6.44981308 5.9375 8.0625 C5.625 9.9375 5.625 9.9375 4.9375 12.0625 C1.9375 14.0625 1.9375 14.0625 -1.25 13.6875 C-2.6421875 13.378125 -2.6421875 13.378125 -4.0625 13.0625 C-4.3925 11.7425 -4.7225 10.4225 -5.0625 9.0625 C-4.464375 9.3925 -3.86625 9.7225 -3.25 10.0625 C-1.00863529 11.27037988 -1.00863529 11.27037988 1.9375 11.0625 C2.2675 10.0725 2.5975 9.0825 2.9375 8.0625 C1.98875 7.93875 1.04 7.815 0.0625 7.6875 C-3.0625 7.0625 -3.0625 7.0625 -5.0625 5.0625 C-4.45789299 1.07209375 -4.2025713 0.08576676 0 0 Z " fill="#40A170" transform="translate(138.0625,109.9375)"/>
<path d="M0 0 C0.99 0 1.98 0 3 0 C3.99 2.64 4.98 5.28 6 8 C7.32 5.36 8.64 2.72 10 0 C10.66 0 11.32 0 12 0 C8.27272727 13.77961433 8.27272727 13.77961433 5 18 C2.87109375 18.71484375 2.87109375 18.71484375 1 19 C1 18.01 1 17.02 1 16 C1.99 15.67 2.98 15.34 4 15 C3.43179252 9.54520815 2.05362055 5.08940744 0 0 Z " fill="#42A370" transform="translate(94,110)"/>
<path d="M0 0 C0.66 0 1.32 0 2 0 C2 3.96 2 7.92 2 12 C1.67 11.34 1.34 10.68 1 10 C-0.32 10 -1.64 10 -3 10 C-3.66 11.32 -4.32 12.64 -5 14 C-7.3125 14.25 -7.3125 14.25 -10 14 C-11.97610386 11.95575462 -13 10.8823175 -13 8 C-8.38 8 -3.76 8 1 8 C0.67 5.36 0.34 2.72 0 0 Z " fill="#CCFAE2" transform="translate(144,82)"/>
<path d="M0 0 C1.32 0.99 2.64 1.98 4 3 C3.01 3 2.02 3 1 3 C1.66 3.66 2.32 4.32 3 5 C5.60280568 4.67958603 5.60280568 4.67958603 8 4 C8.33 2.68 8.66 1.36 9 0 C9.99 0.66 10.98 1.32 12 2 C9.03 4.97 6.06 7.94 3 11 C1.68 10.01 0.36 9.02 -1 8 C-0.67 6.68 -0.34 5.36 0 4 C-3.24849977 5.72226496 -3.24849977 5.72226496 -4 9 C-5.32 8.67 -6.64 8.34 -8 8 C-5.36 5.36 -2.72 2.72 0 0 Z " fill="#0DA558" transform="translate(178,108)"/>
<path d="M0 0 C1.32 0.66 2.64 1.32 4 2 C4 4.97 4 7.94 4 11 C3.34 11 2.68 11 2 11 C1.01 8.69 0.02 6.38 -1 4 C-3.41645782 3.83312552 -3.41645782 3.83312552 -6 4 C-6.66 4.66 -7.32 5.32 -8 6 C-8.99 6 -9.98 6 -11 6 C-10.6875 4.125 -10.6875 4.125 -10 2 C-6.29873141 -0.46751239 -4.37776468 -0.30721156 0 0 Z " fill="#289E62" transform="translate(48,79)"/>
<path d="M0 0 C2.125 1.875 2.125 1.875 4 4 C6.13309192 5.23512079 6.13309192 5.23512079 8 6 C7 7 7 7 4.4375 7.0625 C3.2309375 7.0315625 3.2309375 7.0315625 2 7 C1.67 5.68 1.34 4.36 1 3 C-3.10232212 2.65151821 -3.10232212 2.65151821 -6.8125 4.125 C-8.87202544 7.37688228 -9.29182975 10.3803449 -8.609375 14.16796875 C-8.12433732 16.12544225 -7.56723008 18.06474444 -7 20 C-10.34952523 16.7961063 -11.19397783 14.83141491 -11.375 10.1875 C-11.33003591 6.30372632 -11.14038488 5.20644835 -8.875 1.875 C-5.48818314 -0.3337936 -3.96139166 -0.75856436 0 0 Z " fill="#CDF6E0" transform="translate(84,75)"/>
<path d="M0 0 C3 0.375 3 0.375 4.875 1.875 C5.24625 2.37 5.6175 2.865 6 3.375 C5.67 4.035 5.34 4.695 5 5.375 C4.01 4.715 3.02 4.055 2 3.375 C1.34 4.035 0.68 4.695 0 5.375 C2.31 5.705 4.62 6.035 7 6.375 C7.33 7.695 7.66 9.015 8 10.375 C6.03740738 9.97888039 4.07992339 9.55738306 2.125 9.125 C0.48917969 8.77695313 0.48917969 8.77695313 -1.1796875 8.421875 C-4 7.375 -4 7.375 -5.3828125 5.265625 C-5.58648438 4.64171875 -5.79015625 4.0178125 -6 3.375 C-4.09456498 0.83441997 -3.22246552 0.40280819 0 0 Z " fill="#DAF8E7" transform="translate(12,74.625)"/>
<path d="M0 0 C2.79297711 0.44099639 5.31340243 1.10446748 8 2 C8 3.32 8 4.64 8 6 C7.01 6 6.02 6 5 6 C4.67 7.32 4.34 8.64 4 10 C0.125 9.125 0.125 9.125 -1 8 C-1.125 4.5 -1.125 4.5 -1 1 C-0.67 0.67 -0.34 0.34 0 0 Z " fill="#F3FCF7" transform="translate(124,112)"/>
<path d="M0 0 C1.65 0 3.3 0 5 0 C5 1.32 5 2.64 5 4 C5.66 4.33 6.32 4.66 7 5 C6.34 5 5.68 5 5 5 C4.67 7.97 4.34 10.94 4 14 C2.68 14 1.36 14 0 14 C0 9.38 0 4.76 0 0 Z " fill="#E3FAEF" transform="translate(31,82)"/>
<path d="M0 0 C6.8359375 -0.1953125 6.8359375 -0.1953125 9 0 C11 2 11 2 11.1953125 4.6015625 C11.17210938 5.59929687 11.14890625 6.59703125 11.125 7.625 C11.10695313 8.62789062 11.08890625 9.63078125 11.0703125 10.6640625 C11.03550781 11.82035156 11.03550781 11.82035156 11 13 C10.34 13 9.68 13 9 13 C8.67 9.7 8.34 6.4 8 3 C6.35 3.33 4.7 3.66 3 4 C2.67 6.97 2.34 9.94 2 13 C1.34 13 0.68 13 0 13 C0 8.71 0 4.42 0 0 Z " fill="#329C66" transform="translate(61,110)"/>
<path d="M0 0 C2.64 0 5.28 0 8 0 C8.66 1.65 9.32 3.3 10 5 C10.66 3.68 11.32 2.36 12 1 C12 7.6 12 14.2 12 21 C11.67 21 11.34 21 11 21 C10.67 18.69 10.34 16.38 10 14 C9.67 15.98 9.34 17.96 9 20 C8.67 20 8.34 20 8 20 C7.93941406 18.94039062 7.87882812 17.88078125 7.81640625 16.7890625 C7.73199873 15.40102779 7.64735083 14.01300768 7.5625 12.625 C7.52318359 11.92632812 7.48386719 11.22765625 7.44335938 10.5078125 C7.25719866 6.62639508 7.25719866 6.62639508 6 3 C4.02111039 2.27306096 2.02045442 1.60183749 0 1 C0 0.67 0 0.34 0 0 Z " fill="#E1FDF1" transform="translate(45,78)"/>
<path d="M0 0 C0.33 0.66 0.66 1.32 1 2 C0.67 2.99 0.34 3.98 0 5 C-0.99 5 -1.98 5 -3 5 C-2.67 5.99 -2.34 6.98 -2 8 C-2.639375 8.103125 -3.27875 8.20625 -3.9375 8.3125 C-4.618125 8.539375 -5.29875 8.76625 -6 9 C-6.33 9.99 -6.66 10.98 -7 12 C-10.44444444 15 -10.44444444 15 -13 15 C-13 15.66 -13 16.32 -13 17 C-12.34 17.33 -11.68 17.66 -11 18 C-15.625 20.125 -15.625 20.125 -19 19 C-16.54976242 16.49195282 -14.08852402 13.9949924 -11.625 11.5 C-10.57699219 10.42685547 -10.57699219 10.42685547 -9.5078125 9.33203125 C-8.8375 8.65527344 -8.1671875 7.97851562 -7.4765625 7.28125 C-6.85861816 6.65283203 -6.24067383 6.02441406 -5.60400391 5.37695312 C-4 4 -4 4 -2 4 C-1.34 2.68 -0.68 1.36 0 0 Z " fill="#29A667" transform="translate(129,156)"/>
<path d="M0 0 C0.66 1.32 1.32 2.64 2 4 C-0.31 3.67 -2.62 3.34 -5 3 C-5 5.31 -5 7.62 -5 10 C-3.68 10.33 -2.36 10.66 -1 11 C-0.67 10.34 -0.34 9.68 0 9 C0.66 9 1.32 9 2 9 C1.67 10.32 1.34 11.64 1 13 C-5.34507042 13.35915493 -5.34507042 13.35915493 -7.9375 11.9375 C-9.6140629 8.88023824 -9.36528977 6.4093712 -9 3 C-6.82246161 -0.75020501 -4.02857537 -0.26857169 0 0 Z " fill="#4BA77A" transform="translate(129,110)"/>
<path d="M0 0 C0 2.31 0 4.62 0 7 C-1.32 6.67 -2.64 6.34 -4 6 C-4.33 6.99 -4.66 7.98 -5 9 C-5.639375 9.28875 -6.27875 9.5775 -6.9375 9.875 C-9.26012351 10.85476075 -9.26012351 10.85476075 -10 13.5625 C-11 16 -11 16 -13 16.875 C-15 17 -15 17 -17 16 C-14.3581833 13.32932797 -11.7108958 10.66414667 -9.0625 8 C-7.93038086 6.8553125 -7.93038086 6.8553125 -6.77539062 5.6875 C-6.05673828 4.965625 -5.33808594 4.24375 -4.59765625 3.5 C-3.93258057 2.8296875 -3.26750488 2.159375 -2.58227539 1.46875 C-1 0 -1 0 0 0 Z " fill="#EAFDF2" transform="translate(200,100)"/>
<path d="M0 0 C1 3 1 3 0 6 C3.63 6 7.26 6 11 6 C11.33 5.01 11.66 4.02 12 3 C12.33 3 12.66 3 13 3 C13 4.65 13 6.3 13 8 C8.71 8 4.42 8 0 8 C-0.33 9.32 -0.66 10.64 -1 12 C-3.29013653 8.5647952 -3.17842973 7.014669 -3 3 C-2.34 3 -1.68 3 -1 3 C-0.67 2.01 -0.34 1.02 0 0 Z " fill="#0E9C56" transform="translate(131,82)"/>
<path d="M0 0 C-0.33 1.65 -0.66 3.3 -1 5 C-3.64 5.66 -6.28 6.32 -9 7 C-9.33 5.35 -9.66 3.7 -10 2 C-6.27511755 -0.66063032 -4.42132508 -1.38955931 0 0 Z " fill="#4AAC7D" transform="translate(56,116)"/>
<path d="M0 0 C0.66 0.33 1.32 0.66 2 1 C1.41889329 4.42754467 0.31446376 6.04538661 -2.16015625 8.453125 C-2.78857422 9.071875 -3.41699219 9.690625 -4.06445312 10.328125 C-4.72380859 10.96234375 -5.38316406 11.5965625 -6.0625 12.25 C-6.72572266 12.8996875 -7.38894531 13.549375 -8.07226562 14.21875 C-9.70829317 15.8194676 -11.35090912 17.41276193 -13 19 C-13.33 17.68 -13.66 16.36 -14 15 C-12.54712339 13.66072279 -11.08752741 12.32873153 -9.625 11 C-8.81289062 10.2575 -8.00078125 9.515 -7.1640625 8.75 C-5 7 -5 7 -3 7 C-3.33 6.01 -3.66 5.02 -4 4 C-3.01 4 -2.02 4 -1 4 C-0.67 2.68 -0.34 1.36 0 0 Z " fill="#C7F4DC" transform="translate(184,97)"/>
<path d="M0 0 C2.5 0.125 2.5 0.125 3.5 1.125 C3.21269945 3.46444736 2.88063221 5.7989143 2.5 8.125 C1.84 7.795 1.18 7.465 0.5 7.125 C-0.82 8.115 -2.14 9.105 -3.5 10.125 C-3.83 9.795 -4.16 9.465 -4.5 9.125 C-4.4140625 7.3125 -4.4140625 7.3125 -4.125 5.125 C-4.03476563 4.403125 -3.94453125 3.68125 -3.8515625 2.9375 C-3.30232365 0.1058686 -2.93878709 0.14693935 0 0 Z " fill="#F6FCF9" transform="translate(104.5,82.875)"/>
<path d="M0 0 C0.66 0.99 1.32 1.98 2 3 C-4.90134529 11.43497758 -4.90134529 11.43497758 -10.046875 12.8203125 C-12.72735475 13.03558419 -15.31497677 13.12546838 -18 13 C-16 11 -16 11 -12.25 9.8125 C-8.00074205 8.32139675 -5.90333887 6.06754924 -3.2265625 2.5234375 C-2 1 -2 1 0 0 Z " fill="#E8FAEF" transform="translate(139,160)"/>
<path d="M0 0 C4.29 0 8.58 0 13 0 C10.93040833 4.13918334 9.56280613 5.26575344 6 8 C4.31471312 9.64783606 2.64302953 11.31002677 1 13 C1 11.68 1 10.36 1 9 C1.99 9 2.98 9 4 9 C4.33 8.01 4.66 7.02 5 6 C5.66 6 6.32 6 7 6 C7 5.34 7 4.68 7 4 C6.01 3.67 5.02 3.34 4 3 C4.66 2.67 5.32 2.34 6 2 C3.69 2 1.38 2 -1 2 C-0.67 1.34 -0.34 0.68 0 0 Z " fill="#32AB6E" transform="translate(131,154)"/>
<path d="M0 0 C0.99 0 1.98 0 3 0 C3.66 2.64 4.32 5.28 5 8 C3.68 8 2.36 8 1 8 C1 7.34 1 6.68 1 6 C0.484375 6.33 -0.03125 6.66 -0.5625 7 C-3.78026512 8.32010877 -6.5570528 8.13242105 -10 8 C-10.33 7.01 -10.66 6.02 -11 5 C-10.01 5.33 -9.02 5.66 -8 6 C-5.64811553 5.40206327 -3.31074405 4.74118205 -1 4 C-0.67 2.68 -0.34 1.36 0 0 Z " fill="#219E5E" transform="translate(49,91)"/>
<path d="M0 0 C0.66 0 1.32 0 2 0 C2 4.29 2 8.58 2 13 C2.99 13.33 3.98 13.66 5 14 C2.36 14 -0.28 14 -3 14 C-2.01 13.67 -1.02 13.34 0 13 C0 12.34 0 11.68 0 11 C-0.66 11 -1.32 11 -2 11 C-2 8.03 -2 5.06 -2 2 C-1.34 2 -0.68 2 0 2 C0 1.34 0 0.68 0 0 Z " fill="#DCFBED" transform="translate(113,110)"/>
<path d="M0 0 C2.64 0.66 5.28 1.32 8 2 C8 1.34 8 0.68 8 0 C8.515625 0.165 9.03125 0.33 9.5625 0.5 C14.07708398 1.42606851 18.59363721 1.41003609 23 0 C22.67 0.99 22.34 1.98 22 3 C15.54499249 4.63059689 9.55951817 5.6633543 3 4 C2.01 3.34 1.02 2.68 0 2 C0 1.34 0 0.68 0 0 Z " fill="#EAFEF2" transform="translate(27,97)"/>
<path d="M0 0 C0.33 0 0.66 0 1 0 C1 4.62 1 9.24 1 14 C1.99 14 2.98 14 4 14 C4 14.99 4 15.98 4 17 C2.33388095 17.042721 0.66617115 17.04063832 -1 17 C-2.79061272 15.20938728 -2.17289466 12.60322258 -2.1875 10.1875 C-2.20167969 9.12917969 -2.21585938 8.07085937 -2.23046875 6.98046875 C-2.00615034 4.0795374 -1.50196021 2.45181647 0 0 Z " fill="#1F9C5E" transform="translate(30,82)"/>
<path d="M0 0 C2.97 0 5.94 0 9 0 C9 0.33 9 0.66 9 1 C7.3603125 1.2165625 7.3603125 1.2165625 5.6875 1.4375 C2.06877013 1.88288104 2.06877013 1.88288104 -1 3 C-1.0270043 4.45823212 -1.04639787 5.91660675 -1.0625 7.375 C-1.07410156 8.18710938 -1.08570313 8.99921875 -1.09765625 9.8359375 C-1.14466334 12.04937142 -1.14466334 12.04937142 0 14 C-1.32 14.33 -2.64 14.66 -4 15 C-5.5121867 11.97562661 -5.17263369 9.33758466 -5 6 C-4 3.5625 -4 3.5625 -3 2 C-2.01 2 -1.02 2 0 2 C0 1.34 0 0.68 0 0 Z " fill="#DEF9EA" transform="translate(5,71)"/>
<path d="M0 0 C4.31343181 -0.25373128 7.93801182 -0.42037032 12 1.1875 C14.42509628 3.3852435 14.7395304 4.78754157 15 8 C13.68 8 12.36 8 11 8 C9.8056479 6.45057025 8.61246994 4.90011623 7.4375 3.3359375 C5.85780592 1.59736506 5.85780592 1.59736506 2.1875 1.625 C1.135625 1.74875 0.08375 1.8725 -1 2 C-0.67 1.34 -0.34 0.68 0 0 Z " fill="#25A063" transform="translate(7,72)"/>
<path d="M0 0 C0.66 0 1.32 0 2 0 C2 1.32 2 2.64 2 4 C2.66 4 3.32 4 4 4 C4 4.66 4 5.32 4 6 C3.34 6 2.68 6 2 6 C2 8.97 2 11.94 2 15 C2.66 15 3.32 15 4 15 C4 15.66 4 16.32 4 17 C2.68 17 1.36 17 0 17 C0 13.37 0 9.74 0 6 C-0.66 6 -1.32 6 -2 6 C-2 5.34 -2 4.68 -2 4 C-1.34 4 -0.68 4 0 4 C0 2.68 0 1.36 0 0 Z " fill="#3B9C6A" transform="translate(109,106)"/>
<path d="M0 0 C1.32 0.33 2.64 0.66 4 1 C2.71937515 2.7074998 1.38232443 4.37373596 0 6 C-0.66 6 -1.32 6 -2 6 C-2.99 6.33 -3.98 6.66 -5 7 C-5.33 10.96 -5.66 14.92 -6 19 C-6.33 19 -6.66 19 -7 19 C-7.02685095 16.52076199 -7.04676547 14.0418116 -7.0625 11.5625 C-7.07506836 10.50192383 -7.07506836 10.50192383 -7.08789062 9.41992188 C-7.09653588 7.61306441 -7.05220011 5.80612397 -7 4 C-6 3 -6 3 -3.4375 2.9375 C-2.2309375 2.9684375 -2.2309375 2.9684375 -1 3 C-0.67 2.01 -0.34 1.02 0 0 Z " fill="#DAF9EA" transform="translate(127,80)"/>
<path d="M0 0 C6 2 12 4 18 6 C14.61682513 6.97591583 12.4342662 6.85856655 9 6 C9.33 7.32 9.66 8.64 10 10 C2.51708428 3.84965831 2.51708428 3.84965831 0 0 Z " fill="#27A466" transform="translate(109,22)"/>
<path d="M0 0 C1.65 0 3.3 0 5 0 C4.2733313 0.5101062 4.2733313 0.5101062 3.53198242 1.03051758 C1.25626814 3.95612508 1.52050278 6.94990707 1.48828125 10.51171875 C1.47033005 11.23994339 1.45237885 11.96816803 1.43388367 12.71846008 C1.37975787 15.04141471 1.3458792 17.36416366 1.3125 19.6875 C1.27932875 21.26370051 1.24483927 22.83987388 1.20898438 24.41601562 C1.1240307 28.27719536 1.05723124 32.13831387 1 36 C0.67 36 0.34 36 0 36 C-0.16746774 31.19470128 -0.32804214 26.38924097 -0.48217773 21.58349609 C-0.53561099 19.94801607 -0.5909414 18.31259689 -0.64819336 16.67724609 C-0.73006761 14.32923506 -0.80515983 11.9810911 -0.87890625 9.6328125 C-0.90594131 8.89942657 -0.93297638 8.16604065 -0.96083069 7.41043091 C-1.11387171 2.22774341 -1.11387171 2.22774341 0 0 Z " fill="#CDF8DF" transform="translate(163,118)"/>
<path d="M0 0 C7.28358209 -0.35820896 7.28358209 -0.35820896 10 1 C11.63983879 4.27967758 11.17845638 7.37138689 11 11 C10.34 11 9.68 11 9 11 C8.71125 10.05125 8.4225 9.1025 8.125 8.125 C7.23174891 4.94788422 7.23174891 4.94788422 5 3 C3.01178687 2.60235737 1.01055661 2.26224651 -1 2 C-0.67 1.34 -0.34 0.68 0 0 Z " fill="#179E58" transform="translate(101,80)"/>
<path d="M0 0 C-0.33 1.65 -0.66 3.3 -1 5 C-3.31 5.33 -5.62 5.66 -8 6 C-8.33 4.68 -8.66 3.36 -9 2 C-5.5647952 -0.29013653 -4.014669 -0.17842973 0 0 Z " fill="#DFFBED" transform="translate(49,90)"/>
<path d="M0 0 C3.65316671 1.24976756 4.78065836 1.67098753 7 5 C7.125 7.6875 7.125 7.6875 7 10 C6.67 9.01 6.34 8.02 6 7 C5.34 7 4.68 7 4 7 C3.67 7.66 3.34 8.32 3 9 C2.814375 8.38125 2.62875 7.7625 2.4375 7.125 C0.28562767 3.94397134 -2.37533763 3.80548053 -6 3 C-6 2.67 -6 2.34 -6 2 C-4.02 2 -2.04 2 0 2 C0 1.34 0 0.68 0 0 Z " fill="#2FA669" transform="translate(16,84)"/>
<path d="M0 0 C1.12894876 0.93274109 2.25300876 1.87140122 3.375 2.8125 C4.00148437 3.33457031 4.62796875 3.85664062 5.2734375 4.39453125 C7 6 7 6 9 9 C4.38 9 -0.24 9 -5 9 C-5.33 8.34 -5.66 7.68 -6 7 C-2.7 6.67 0.6 6.34 4 6 C3.01 5.67 2.02 5.34 1 5 C0.67 3.35 0.34 1.7 0 0 Z " fill="#38A56F" transform="translate(136,36)"/>
<path d="M0 0 C0.66 0 1.32 0 2 0 C2.66 1.65 3.32 3.3 4 5 C4.99 5 5.98 5 7 5 C7 3.35 7 1.7 7 0 C7.33 0 7.66 0 8 0 C8 4.62 8 9.24 8 14 C3.42376367 10.56782276 3.30660373 9.31974376 2 4 C1.37530495 2.64649406 0.7283669 1.30065517 0 0 Z " fill="#E8FEF2" transform="translate(19,83)"/>
<path d="M0 0 C4 2 4 2 5.8125 5.3125 C6.97744059 8.92994708 7.17625205 10.47124386 6 14 C5.67 14 5.34 14 5 14 C4.87625 13.195625 4.7525 12.39125 4.625 11.5625 C4.41875 10.716875 4.2125 9.87125 4 9 C3.34 8.67 2.68 8.34 2 8 C1.67 8.66 1.34 9.32 1 10 C0.67 6.7 0.34 3.4 0 0 Z " fill="#DDF7EA" transform="translate(92,112)"/>
<path d="M0 0 C1.65 1.65 3.3 3.3 5 5 C2.03 7.97 -0.94 10.94 -4 14 C-4.33 13.34 -4.66 12.68 -5 12 C-5.66 11.67 -6.32 11.34 -7 11 C-5.68 11 -4.36 11 -3 11 C-3 9.35 -3 7.7 -3 6 C-1.35 6 0.3 6 2 6 C1.34 4.02 0.68 2.04 0 0 Z " fill="#21A161" transform="translate(195,95)"/>
<path d="M0 0 C0.66 0 1.32 0 2 0 C1.25 4.75 1.25 4.75 -1 7 C-3.3828125 7.1953125 -3.3828125 7.1953125 -6.125 7.125 C-7.49011719 7.09792969 -7.49011719 7.09792969 -8.8828125 7.0703125 C-9.58148438 7.04710938 -10.28015625 7.02390625 -11 7 C-11.33 6.34 -11.66 5.68 -12 5 C-10.7625 4.87625 -9.525 4.7525 -8.25 4.625 C-5.1237803 4.24253695 -2.71120763 3.69450477 0 2 C0 1.34 0 0.68 0 0 Z " fill="#149E59" transform="translate(20,91)"/>
<path d="M0 0 C2.4375 0.4375 2.4375 0.4375 4.4375 2.4375 C4.4375 3.4275 4.4375 4.4175 4.4375 5.4375 C1.1375 5.4375 -2.1625 5.4375 -5.5625 5.4375 C-3.24265926 0.55362475 -3.24265926 0.55362475 0 0 Z " fill="#DEFBEE" transform="translate(44.5625,81.5625)"/>
<path d="M0 0 C0.99 0.33 1.98 0.66 3 1 C3.01981934 1.86278564 3.03963867 2.72557129 3.06005859 3.61450195 C3.13819644 6.81836956 3.22489082 10.02185894 3.31738281 13.2253418 C3.3556435 14.61131907 3.39050156 15.99739465 3.421875 17.38354492 C3.46758699 19.3770164 3.52658925 21.37016914 3.5859375 23.36328125 C3.6173584 24.56251221 3.6487793 25.76174316 3.68115234 26.99731445 C3.78429494 30.17882706 3.78429494 30.17882706 6 33 C4.68 32.34 3.36 31.68 2 31 C1.97494385 30.16750732 1.9498877 29.33501465 1.92407227 28.47729492 C1.82887306 25.38537167 1.72964328 22.29361148 1.62768555 19.2019043 C1.56312994 17.20696681 1.5032217 15.21188071 1.44335938 13.21679688 C1.40146484 11.96318359 1.35957031 10.70957031 1.31640625 9.41796875 C1.27974854 8.26063232 1.24309082 7.1032959 1.20532227 5.91088867 C1.11671491 2.9356554 1.11671491 2.9356554 0 0 Z " fill="#1A9B5A" transform="translate(176,49)"/>
<path d="M0 0 C2.5625 0.1875 2.5625 0.1875 4.5625 2.1875 C4.5625 3.1775 4.5625 4.1675 4.5625 5.1875 C1.5925 5.1875 -1.3775 5.1875 -4.4375 5.1875 C-3.20220588 0.24632353 -3.20220588 0.24632353 0 0 Z " fill="#D8FBEA" transform="translate(136.4375,81.8125)"/>
<path d="M0 0 C0 0.33 0 0.66 0 1 C-1.423125 1.0928125 -1.423125 1.0928125 -2.875 1.1875 C-4.421875 1.5896875 -4.421875 1.5896875 -6 2 C-7.45291273 4.46255685 -7.45291273 4.46255685 -8 7 C-8.99 6.67 -9.98 6.34 -11 6 C-10.67 9.63 -10.34 13.26 -10 17 C-12.47035712 14.52964288 -12.35042281 13.6039993 -12.4375 10.1875 C-12.34904355 6.36728703 -12.11383345 5.17247493 -9.9375 1.875 C-6.35870823 -0.40933517 -4.16952449 -0.40877691 0 0 Z " fill="#32A168" transform="translate(107,79)"/>
<path d="M0 0 C0.99 0.33 1.98 0.66 3 1 C1.35 2.65 -0.3 4.3 -2 6 C0.97 5.34 3.94 4.68 7 4 C5.4375 6 5.4375 6 3 8 C-0.75 8.25 -0.75 8.25 -4 8 C-4.33 7.01 -4.66 6.02 -5 5 C-3.625 3.5 -3.625 3.5 -2 2 C-1.34 2 -0.68 2 0 2 C0 1.34 0 0.68 0 0 Z " fill="#DBF8EA" transform="translate(113,169)"/>
<path d="M0 0 C4.52615993 3.67832017 8.39424999 7.41086363 12 12 C10.35 11.67 8.7 11.34 7 11 C7 10.01 7 9.02 7 8 C6.401875 7.87625 5.80375 7.7525 5.1875 7.625 C3 7 3 7 0 5 C-0.1875 2.375 -0.1875 2.375 0 0 Z " fill="#CBF4E0" transform="translate(172,85)"/>
<path d="M0 0 C2.64 0 5.28 0 8 0 C7.67 1.65 7.34 3.3 7 5 C4.625 5.125 4.625 5.125 2 5 C1.34 4.34 0.68 3.68 0 3 C0 2.01 0 1.02 0 0 Z " fill="#EDFDF6" transform="translate(132,91)"/>
<path d="M0 0 C3 1 3 1 4 3 C4.039992 4.99960012 4.04346799 7.00047242 4 9 C3.34 7.68 2.68 6.36 2 5 C1.67 5.66 1.34 6.32 1 7 C-2.63 7 -6.26 7 -10 7 C-9.67 6.01 -9.34 5.02 -9 4 C-9 4.66 -9 5.32 -9 6 C-6.03 6 -3.06 6 0 6 C-0.2784375 4.7934375 -0.2784375 4.7934375 -0.5625 3.5625 C-0.706875 2.716875 -0.85125 1.87125 -1 1 C-0.67 0.67 -0.34 0.34 0 0 Z " fill="#33A469" transform="translate(141,81)"/>
<path d="M0 0 C3.22939919 -0.35882213 4.61209763 -0.27258004 7.3125 1.625 C9.42956587 4.60457419 9.32523926 6.42236811 9 10 C8.01 10 7.02 10 6 10 C6.33 8.68 6.66 7.36 7 6 C4.36 4.68 1.72 3.36 -1 2 C-0.67 1.34 -0.34 0.68 0 0 Z " fill="#D1F8E7" transform="translate(136,112)"/>
<path d="M0 0 C0.66 0.33 1.32 0.66 2 1 C1.67 3.97 1.34 6.94 1 10 C-0.32 10.33 -1.64 10.66 -3 11 C-2.67 9.68 -2.34 8.36 -2 7 C-3.32 7 -4.64 7 -6 7 C-6.33 7.66 -6.66 8.32 -7 9 C-7.33 8.01 -7.66 7.02 -8 6 C-5.69 6 -3.38 6 -1 6 C-0.67 4.02 -0.34 2.04 0 0 Z " fill="#CEF6E1" transform="translate(94,83)"/>
<path d="M0 0 C0.99 0.33 1.98 0.66 3 1 C-0.49359465 4.59634744 -4.11098131 7.83451967 -8 11 C-8 8 -8 8 -5.6875 5.5 C-4.800625 4.675 -3.91375 3.85 -3 3 C-2.401875 2.401875 -1.80375 1.80375 -1.1875 1.1875 C-0.795625 0.795625 -0.40375 0.40375 0 0 Z " fill="#E2FCF0" transform="translate(127,155)"/>
<path d="M0 0 C0.94875 0.04125 1.8975 0.0825 2.875 0.125 C3.535 1.445 4.195 2.765 4.875 4.125 C2.565 3.795 0.255 3.465 -2.125 3.125 C-2.785 4.775 -3.445 6.425 -4.125 8.125 C-4.455 8.125 -4.785 8.125 -5.125 8.125 C-5.25 5.25 -5.25 5.25 -5.125 2.125 C-3.125 0.125 -3.125 0.125 0 0 Z " fill="#359C69" transform="translate(126.125,109.875)"/>
<path d="M0 0 C0.99 0.495 0.99 0.495 2 1 C1.67 1.66 1.34 2.32 1 3 C1.99 2.34 2.98 1.68 4 1 C6.6875 0.875 6.6875 0.875 9 1 C9 1.99 9 2.98 9 4 C6.36 4.66 3.72 5.32 1 6 C0.67 4.02 0.34 2.04 0 0 Z " fill="#DDFCEF" transform="translate(46,111)"/>
<path d="M0 0 C7.75 0.875 7.75 0.875 10 2 C10 2.66 10 3.32 10 4 C7.03 4 4.06 4 1 4 C0.67 2.68 0.34 1.36 0 0 Z " fill="#14A056" transform="translate(6,82)"/>
<path d="M0 0 C1.65 0 3.3 0 5 0 C5.33 0.66 5.66 1.32 6 2 C5.67 2.66 5.34 3.32 5 4 C1.9375 4.625 1.9375 4.625 -1 5 C-1 4.34 -1 3.68 -1 3 C-1.99 3 -2.98 3 -4 3 C-4 2.34 -4 1.68 -4 1 C-2.68 1.33 -1.36 1.66 0 2 C0 1.34 0 0.68 0 0 Z " fill="#2A9F62" transform="translate(62,79)"/>
<path d="M0 0 C1.2065625 0.0309375 1.2065625 0.0309375 2.4375 0.0625 C2.1075 1.3825 1.7775 2.7025 1.4375 4.0625 C-0.2125 4.3925 -1.8625 4.7225 -3.5625 5.0625 C-3.5625 0.08689024 -3.5625 0.08689024 0 0 Z " fill="#C4F6DB" transform="translate(81.5625,116.9375)"/>
<path d="M0 0 C0.66 0.99 1.32 1.98 2 3 C-5.3697851 7.46015566 -5.3697851 7.46015566 -10 6.75 C-10.99 6.5025 -11.98 6.255 -13 6 C-13 5.67 -13 5.34 -13 5 C-11.96939453 4.83564453 -11.96939453 4.83564453 -10.91796875 4.66796875 C-10.01691406 4.50941406 -9.11585937 4.35085937 -8.1875 4.1875 C-6.84751953 3.96126953 -6.84751953 3.96126953 -5.48046875 3.73046875 C-2.81678744 2.94604607 -1.74309678 2.11372201 0 0 Z " fill="#D1F8E3" transform="translate(22,94)"/>
<path d="M0 0 C1.32 0 2.64 0 4 0 C3.64950425 3.24208567 3.43778819 4.61527704 0.9375 6.8125 C0.298125 7.204375 -0.34125 7.59625 -1 8 C-1.625 5.6875 -1.625 5.6875 -2 3 C-1.34 2.01 -0.68 1.02 0 0 Z " fill="#2BA267" transform="translate(88,90)"/>
<path d="M0 0 C4.875 0.875 4.875 0.875 6 2 C6.04063832 3.66617115 6.042721 5.33388095 6 7 C5.01 7 4.02 7 3 7 C0 2.77777778 0 2.77777778 0 0 Z " fill="#F8FCFB" transform="translate(20,81)"/>
<path d="M0 0 C2.475 0.495 2.475 0.495 5 1 C5 4.3 5 7.6 5 11 C4.34 9.68 3.68 8.36 3 7 C2.34 7 1.68 7 1 7 C1.33 5.02 1.66 3.04 2 1 C1.34 0.67 0.68 0.34 0 0 Z " fill="#D4F4E4" transform="translate(65,112)"/>
<path d="M0 0 C0 3.17638639 -0.15205785 4.45774433 -2 7 C-4.6015625 7.609375 -4.6015625 7.609375 -7.625 7.75 C-8.62789063 7.80671875 -9.63078125 7.8634375 -10.6640625 7.921875 C-11.43492188 7.94765625 -12.20578125 7.9734375 -13 8 C-10.52295499 5.52295499 -8.24880185 4.95054266 -4.97265625 3.87890625 C-2.79722113 2.90965298 -1.57097314 1.76796037 0 0 Z " fill="#DCFBEA" transform="translate(134,165)"/>
<path d="M0 0 C0.763125 0.0825 1.52625 0.165 2.3125 0.25 C1.36117187 0.58644531 1.36117187 0.58644531 0.390625 0.9296875 C-1.90766157 2.08785757 -1.90766157 2.08785757 -2.515625 4.6328125 C-2.65484375 5.53773437 -2.7940625 6.44265625 -2.9375 7.375 C-3.08703125 8.28507812 -3.2365625 9.19515625 -3.390625 10.1328125 C-3.48859375 10.83148438 -3.5865625 11.53015625 -3.6875 12.25 C-5.6875 10.25 -5.6875 10.25 -6 7.375 C-5.56017191 2.97671909 -4.67611126 0.43498709 0 0 Z " fill="#B5EAD0" transform="translate(103.6875,81.75)"/>
<path d="M0 0 C0.66 0.33 1.32 0.66 2 1 C2 3.97 2 6.94 2 10 C1.34 10 0.68 10 0 10 C-0.66 7.03 -1.32 4.06 -2 1 C-1.34 0.67 -0.68 0.34 0 0 Z " fill="#159E5A" transform="translate(50,80)"/>
<path d="M0 0 C0.66 0 1.32 0 2 0 C2.33 0.66 2.66 1.32 3 2 C5.76276177 1.47731534 8.3260876 0.89130413 11 0 C11 1.32 11 2.64 11 4 C7.7 4 4.4 4 1 4 C0.67 2.68 0.34 1.36 0 0 Z " fill="#2A9562" transform="translate(75,119)"/>
<path d="M0 0 C1.65 0 3.3 0 5 0 C5.33 0.99 5.66 1.98 6 3 C3.36 3.66 0.72 4.32 -2 5 C-2 4.01 -2 3.02 -2 2 C-1.34 2 -0.68 2 0 2 C0 1.34 0 0.68 0 0 Z " fill="#D7FAEA" transform="translate(78,112)"/>
<path d="M0 0 C-0.33 0.99 -0.66 1.98 -1 3 C-9.42857143 4.42857143 -9.42857143 4.42857143 -14 2 C-10.52676476 0.84225492 -7.64187701 1 -4 1 C-2 0 -2 0 0 0 Z " fill="#D1FAE3" transform="translate(50,97)"/>
<path d="M0 0 C0 1.32 0 2.64 0 4 C-1.65 4.33 -3.3 4.66 -5 5 C-5.33 3.68 -5.66 2.36 -6 1 C-3 0 -3 0 0 0 Z " fill="#D2F8E4" transform="translate(55,117)"/>
<path d="M0 0 C0.99 0 1.98 0 3 0 C3.52973311 1.62212059 4.04853107 3.24781584 4.5625 4.875 C4.85253906 5.77992187 5.14257812 6.68484375 5.44140625 7.6171875 C6 10 6 10 5 12 C4.16440201 10.18854294 3.33157951 8.37580533 2.5 6.5625 C2.0359375 5.55316406 1.571875 4.54382813 1.09375 3.50390625 C0 1 0 1 0 0 Z " fill="#349E68" transform="translate(94,110)"/>
<path d="M0 0 C2.31 0 4.62 0 7 0 C7.33 0.66 7.66 1.32 8 2 C7.01 3.485 7.01 3.485 6 5 C6 4.01 6 3.02 6 2 C3.36 2.66 0.72 3.32 -2 4 C-1.34 2.68 -0.68 1.36 0 0 Z " fill="#3EA06D" transform="translate(49,110)"/>
<path d="M0 0 C2.25 1.4375 2.25 1.4375 3.0625 4.0625 C3.124375 4.84625 3.18625 5.63 3.25 6.4375 C2.87875 5.9425 2.5075 5.4475 2.125 4.9375 C-0.52545942 2.81713246 -2.44560641 3.15627501 -5.75 3.4375 C-6.74 3.9325 -6.74 3.9325 -7.75 4.4375 C-7.75 3.4475 -7.75 2.4575 -7.75 1.4375 C-4.80181084 -0.07871157 -3.29643456 -0.67427071 0 0 Z " fill="#D6F7E5" transform="translate(140.75,107.5625)"/>
<path d="M0 0 C2 2 2 2 2.375 4.8125 C1.92199358 8.66305455 0.6183364 10.21801758 -2 13 C-2.66 12.67 -3.32 12.34 -4 12 C-3.525625 11.319375 -3.05125 10.63875 -2.5625 9.9375 C-0.7774364 6.58158044 -0.36846914 3.75838519 0 0 Z " fill="#D5F7E9" transform="translate(113,85)"/>
<path d="M0 0 C2.64 0 5.28 0 8 0 C8 0.66 8 1.32 8 2 C6.9275 2.12375 5.855 2.2475 4.75 2.375 C1.62136385 2.89643936 -0.33480424 3.40088254 -3 5 C-3.33 4.34 -3.66 3.68 -4 3 C-3.01 3 -2.02 3 -1 3 C-0.67 2.01 -0.34 1.02 0 0 Z " fill="#E4FDF4" transform="translate(99,77)"/>
<path d="M0 0 C-0.34879632 3.25543229 -1.02133261 4.01873107 -3.5625 6.25 C-4.366875 6.8275 -5.17125 7.405 -6 8 C-5.62403791 5.21788056 -5.32681541 3.4120716 -3.5625 1.1875 C-2 0 -2 0 0 0 Z " fill="#D1F4E5" transform="translate(176,108)"/>
<path d="M0 0 C0 0.99 0 1.98 0 3 C-3.3 3 -6.6 3 -10 3 C-10.33 2.34 -10.66 1.68 -11 1 C-9.54182203 0.83197949 -8.0834516 0.66562857 -6.625 0.5 C-5.81289062 0.4071875 -5.00078125 0.314375 -4.1640625 0.21875 C-2 0 -2 0 0 0 Z " fill="#D6FAE8" transform="translate(87,98)"/>
<path d="M0 0 C0.33 0 0.66 0 1 0 C1.66 2.31 2.32 4.62 3 7 C3.66 6.67 4.32 6.34 5 6 C5.66 7.32 6.32 8.64 7 10 C5.68 10.33 4.36 10.66 3 11 C0.29417212 7.16674383 -0.32613618 4.67461851 0 0 Z " fill="#3FAE77" transform="translate(127,86)"/>
<path d="M0 0 C1.70884005 1.62339805 3.37446717 3.29319053 5 5 C5 5.66 5 6.32 5 7 C3.35 6.67 1.7 6.34 0 6 C-1 3 -1 3 0 0 Z " fill="#2CA167" transform="translate(87,73)"/>
<path d="M0 0 C2 3.75 2 3.75 2 6 C3.32 6 4.64 6 6 6 C5.67 6.99 5.34 7.98 5 9 C1.125 8.125 1.125 8.125 0 7 C-0.04092937 4.66702567 -0.04241723 2.33294775 0 0 Z " fill="#D7F9E9" transform="translate(123,113)"/>
<path d="M0 0 C1.4370809 -0.05422947 2.87475462 -0.09289723 4.3125 -0.125 C5.11300781 -0.14820312 5.91351563 -0.17140625 6.73828125 -0.1953125 C9 0 9 0 12 2 C11.01 2.495 11.01 2.495 10 3 C9.67 3.66 9.34 4.32 9 5 C8.649375 4.505 8.29875 4.01 7.9375 3.5 C5.05625711 1.26936034 2.52990974 1.80019379 -1 2 C-0.67 1.34 -0.34 0.68 0 0 Z " fill="#2FA569" transform="translate(7,72)"/>
<path d="M0 0 C0.33 0.66 0.66 1.32 1 2 C0.67 2.66 0.34 3.32 0 4 C0.66 4.33 1.32 4.66 2 5 C-2.625 7.125 -2.625 7.125 -6 6 C-4.02 4.02 -2.04 2.04 0 0 Z " fill="#3FA373" transform="translate(116,169)"/>
<path d="M0 0 C0.47050781 0.33773437 0.94101562 0.67546875 1.42578125 1.0234375 C2.35970703 1.69246094 2.35970703 1.69246094 3.3125 2.375 C4.23482422 3.03628906 4.23482422 3.03628906 5.17578125 3.7109375 C6.7652392 4.83410907 8.38062171 5.92041447 10 7 C8.375 7.75 8.375 7.75 6 8 C2.75 6.3125 2.75 6.3125 0 4 C0 2.68 0 1.36 0 0 Z " fill="#E1FBEE" transform="translate(2,94)"/>
<path d="M0 0 C1.65 1.65 3.3 3.3 5 5 C2.36 4.67 -0.28 4.34 -3 4 C-2.01 2.68 -1.02 1.36 0 0 Z " fill="#FBFBFD" transform="translate(14,77)"/>
<path d="M0 0 C7.42857143 -0.28571429 7.42857143 -0.28571429 11 2 C11 2.66 11 3.32 11 4 C6.545 3.01 6.545 3.01 2 2 C1.67 2.99 1.34 3.98 1 5 C0.67 3.35 0.34 1.7 0 0 Z " fill="#E4FCEF" transform="translate(161,43)"/>
<path d="M0 0 C1.32 0.66 2.64 1.32 4 2 C0.535 4.97 0.535 4.97 -3 8 C-3 6.68 -3 5.36 -3 4 C-2.01 4 -1.02 4 0 4 C0 2.68 0 1.36 0 0 Z " fill="#24A462" transform="translate(186,108)"/>
<path d="M0 0 C0 3 0 3 -1.4375 4.5 C-1.953125 4.995 -2.46875 5.49 -3 6 C-3.33 6.99 -3.66 7.98 -4 9 C-5.32 8.67 -6.64 8.34 -8 8 C-5.36 5.36 -2.72 2.72 0 0 Z " fill="#139A57" transform="translate(178,108)"/>
<path d="M0 0 C1.32 0 2.64 0 4 0 C3.42655063 2.86724686 3.1385485 3.8614515 1 6 C0.01 5.67 -0.98 5.34 -2 5 C-1.34 5 -0.68 5 0 5 C0 3.35 0 1.7 0 0 Z " fill="#38A46C" transform="translate(141,92)"/>
<path d="M0 0 C1.65 0 3.3 0 5 0 C6 3 6 3 5 6 C3.35 4.02 1.7 2.04 0 0 Z " fill="#2AAA6B" transform="translate(124,37)"/>
<path d="M0 0 C3 0 3 0 4.5625 1.4375 C5.036875 1.953125 5.51125 2.46875 6 3 C6.66 3.33 7.32 3.66 8 4 C7.67 4.99 7.34 5.98 7 7 C5.83040013 6.02433888 4.66438823 5.044375 3.5 4.0625 C2.8503125 3.51722656 2.200625 2.97195312 1.53125 2.41015625 C1.0259375 1.94480469 0.520625 1.47945313 0 1 C0 0.67 0 0.34 0 0 Z " fill="#129A58" transform="translate(172,84)"/>
<path d="M0 0 C3.3 0 6.6 0 10 0 C8.35 1.65 6.7 3.3 5 5 C5 4.34 5 3.68 5 3 C4.34 3 3.68 3 3 3 C3 2.34 3 1.68 3 1 C2.01 0.67 1.02 0.34 0 0 Z " fill="#C9F3DF" transform="translate(31,79)"/>
<path d="M0 0 C5.875 2.75 5.875 2.75 7 5 C3.7 4.01 0.4 3.02 -3 2 C-2.01 1.34 -1.02 0.68 0 0 Z " fill="#D1F8E3" transform="translate(119,23)"/>
<path d="M0 0 C2.35171131 0.59861742 4.6859378 1.26924352 7 2 C7.33 2.66 7.66 3.32 8 4 C7.34 4 6.68 4 6 4 C5.67 4.66 5.34 5.32 5 6 C3.35 4.02 1.7 2.04 0 0 Z " fill="#50A87B" transform="translate(109,22)"/>
<path d="M0 0 C1.98 1.65 3.96 3.3 6 5 C4.68 5.33 3.36 5.66 2 6 C1.01 4.35 0.02 2.7 -1 1 C-0.67 0.67 -0.34 0.34 0 0 Z " fill="#E8FDF3" transform="translate(108,22)"/>
<path d="M0 0 C0 0.66 0 1.32 0 2 C-2.97 2.66 -5.94 3.32 -9 4 C-9 3.34 -9 2.68 -9 2 C-3.375 0 -3.375 0 0 0 Z " fill="#3F9E70" transform="translate(84,115)"/>
<path d="M0 0 C2.475 0.99 2.475 0.99 5 2 C4.67 3.32 4.34 4.64 4 6 C2.68 5.34 1.36 4.68 0 4 C0 2.68 0 1.36 0 0 Z " fill="#2EA368" transform="translate(3,79)"/>
</svg>
